<svg xmlns="http://www.w3.org/2000/svg" width="720" height="116" viewBox="0 0 720 116" role="img" aria-labelledby="title desc">
  <title id="title">Open Happigo live website</title>
  <desc id="desc">Green and yellow Happigo live website button</desc>
  <defs>
    <linearGradient id="bg" x1="0" y1="0" x2="1" y2="1">
      <stop offset="0" stop-color="#173c2b"/>
      <stop offset="1" stop-color="#285f3e"/>
    </linearGradient>
    <linearGradient id="sun" x1="0" y1="0" x2="1" y2="0">
      <stop offset="0" stop-color="#f4df4f"/>
      <stop offset="1" stop-color="#dce764"/>
    </linearGradient>
    <filter id="shadow" x="-20%" y="-30%" width="140%" height="170%">
      <feDropShadow dx="0" dy="10" stdDeviation="10" flood-opacity=".3"/>
    </filter>
  </defs>
  <rect x="8" y="8" width="704" height="100" rx="28" fill="url(#bg)" filter="url(#shadow)"/>
  <rect x="9" y="9" width="702" height="98" rx="27" fill="none" stroke="#e8df69" stroke-width="2"/>
  <circle cx="64" cy="58" r="29" fill="url(#sun)"/>
  <path d="M48 61c10-4 18-12 22-24 4 14-1 26-15 32-5-1-8-4-7-8Z" fill="#173c2b"/>
  <text x="112" y="46" fill="#fff" font-family="Arial, Helvetica, sans-serif" font-size="15" font-weight="700" letter-spacing="4">HAPPIGO · TRAVEL JOURNAL</text>
  <text x="112" y="78" fill="#f2df67" font-family="Arial, Helvetica, sans-serif" font-size="25" font-weight="800">OPEN LIVE WEBSITE</text>
  <circle cx="653" cy="58" r="27" fill="#f2df67"/>
  <path d="M642 58h21m-8-8 8 8-8 8" fill="none" stroke="#173c2b" stroke-width="3.5" stroke-linecap="round" stroke-linejoin="round"/>
</svg>
